<svg version="1.1" xmlns="http://www.w3.org/2000/svg" xmlns:xlink="http://www.w3.org/1999/xlink" width="960" height="720" viewBox="0,0,960,720"><defs><linearGradient x1="234.17596" y1="148.53907" x2="234.17596" y2="211.46094" gradientUnits="userSpaceOnUse" id="color-1"><stop offset="0" stop-color="#a0afc8"/><stop offset="1" stop-color="#90a2c8"/></linearGradient><linearGradient x1="235.67596" y1="148.53907" x2="235.67596" y2="211.46094" gradientUnits="userSpaceOnUse" id="color-2"><stop offset="0" stop-color="#a0afc8"/><stop offset="1" stop-color="#90a2c8"/></linearGradient><linearGradient x1="233.17596" y1="148.53907" x2="233.17596" y2="211.46094" gradientUnits="userSpaceOnUse" id="color-3"><stop offset="0" stop-color="#a0afc8"/><stop offset="1" stop-color="#90a2c8"/></linearGradient><linearGradient x1="234.17596" y1="148.53907" x2="234.17596" y2="211.46094" gradientUnits="userSpaceOnUse" id="color-4"><stop offset="0" stop-color="#a0afc8"/><stop offset="1" stop-color="#90a2c8"/></linearGradient><linearGradient x1="232.17596" y1="148.53907" x2="232.17596" y2="211.46094" gradientUnits="userSpaceOnUse" id="color-5"><stop offset="0" stop-color="#a0afc8"/><stop offset="1" stop-color="#90a2c8"/></linearGradient><linearGradient x1="231.67596" y1="148.53907" x2="231.67596" y2="211.46094" gradientUnits="userSpaceOnUse" id="color-6"><stop offset="0" stop-color="#a0afc8"/><stop offset="1" stop-color="#90a2c8"/></linearGradient><linearGradient x1="238.5" y1="148.53907" x2="238.5" y2="211.46094" gradientUnits="userSpaceOnUse" id="color-7"><stop offset="0" stop-color="#cddfff"/><stop offset="1" stop-color="#b7ceff"/></linearGradient><linearGradient x1="240" y1="148.53907" x2="240" y2="211.46094" gradientUnits="userSpaceOnUse" id="color-8"><stop offset="0" stop-color="#cddfff"/><stop offset="1" stop-color="#b7ceff"/></linearGradient><linearGradient x1="237.5" y1="148.53907" x2="237.5" y2="211.46094" gradientUnits="userSpaceOnUse" id="color-9"><stop offset="0" stop-color="#cddfff"/><stop offset="1" stop-color="#b7ceff"/></linearGradient><linearGradient x1="238.5" y1="148.53907" x2="238.5" y2="211.46094" gradientUnits="userSpaceOnUse" id="color-10"><stop offset="0" stop-color="#cddfff"/><stop offset="1" stop-color="#b7ceff"/></linearGradient><linearGradient x1="236.5" y1="148.53907" x2="236.5" y2="211.46094" gradientUnits="userSpaceOnUse" id="color-11"><stop offset="0" stop-color="#cddfff"/><stop offset="1" stop-color="#b7ceff"/></linearGradient><linearGradient x1="236" y1="148.53907" x2="236" y2="211.46094" gradientUnits="userSpaceOnUse" id="color-12"><stop offset="0" stop-color="#cddfff"/><stop offset="1" stop-color="#b7ceff"/></linearGradient><clipPath id="clip-1"><path d="M-240,-180h960v720h-960z" fill="none" fill-rule="nonzero" stroke-linecap="square"/></clipPath></defs><g transform="translate(240,180)"><g clip-path="url(#clip-1)" data-paper-data="{&quot;isPaintingLayer&quot;:true}" stroke="none" stroke-width="1" stroke-linejoin="miter" stroke-miterlimit="10" stroke-dasharray="" stroke-dashoffset="0" style="mix-blend-mode: normal"><path d="M212.66037,164.91407c3.86459,0 7.16666,0.94271 9.90625,2.82813c1.46838,1.00116 2.76004,2.22952 3.875,3.68508v-22.8882h14.95313v62.32813h-14.95312v-5.80208c-1.05427,1.38779 -2.27302,2.5666 -3.65625,3.53645c-2.71875,1.90625 -5.97916,2.85938 -9.78125,2.85938c-4.26041,0 -7.98959,-0.97916 -11.1875,-2.9375c-3.1875,-1.96875 -5.65104,-4.71354 -7.39062,-8.23437c-1.72916,-3.53125 -2.59375,-7.65104 -2.59375,-12.35937c0,-4.64584 0.85416,-8.67709 2.5625,-12.09375c1.70834,-3.41666 4.14063,-6.08854 7.29688,-8.01562c3.16666,-1.9375 6.82291,-2.90625 10.96875,-2.90625zM216.69162,176.85157c-1.95834,0 -3.68229,0.47916 -5.17187,1.4375c-1.47916,0.94791 -2.625,2.29166 -3.4375,4.03125c-0.8125,1.72916 -1.21875,3.73959 -1.21875,6.03125c0,2.30209 0.40625,4.30729 1.21875,6.01563c0.8125,1.70834 1.95834,3.05209 3.4375,4.03125c1.48959,0.97916 3.21354,1.46875 5.17188,1.46875c1.95834,0 3.66666,-0.48959 5.125,-1.46875c1.45834,-0.97916 2.59375,-2.32291 3.40625,-4.03125c0.8125,-1.70834 1.21875,-3.71354 1.21875,-6.01562c0,-2.29166 -0.40625,-4.30209 -1.21875,-6.03125c-0.8125,-1.73959 -1.94791,-3.08334 -3.40625,-4.03125c-1.45834,-0.95834 -3.16666,-1.4375 -5.125,-1.4375z" fill="url(#color-1)" fill-rule="nonzero" stroke-linecap="butt"/><path d="M80.44322,151.97657h15.35938v24.10938h23.78125v-24.10937h15.37499v58.89063h-15.37499v-22.6875h-23.78125v22.6875h-15.35937z" fill="url(#color-2)" fill-rule="nonzero" stroke-linecap="butt"/><path d="M309.44162,165.00782c4.97917,0 9.32813,0.95313 13.04688,2.85938c3.72917,1.89584 6.63021,4.58334 8.70313,8.0625c2.07292,3.46875 3.10938,7.52604 3.10938,12.17188c0,4.64584 -1.03646,8.71875 -3.10937,12.21875c-2.07292,3.5 -4.97396,6.21875 -8.70312,8.15625c-3.71875,1.92709 -8.06771,2.89063 -13.04687,2.89063c-4.98958,0 -9.34896,-0.96354 -13.07812,-2.89062c-3.71875,-1.9375 -6.59896,-4.65625 -8.64062,-8.15625c-2.04167,-3.5 -3.0625,-7.57291 -3.0625,-12.21875c0,-4.64584 1.02083,-8.70312 3.0625,-12.17187c2.04167,-3.47916 4.92188,-6.16666 8.64063,-8.0625c3.72917,-1.90625 8.08854,-2.85937 13.07813,-2.85937zM309.44162,176.85157c-1.95833,0 -3.66667,0.47916 -5.125,1.4375c-1.45833,0.94791 -2.59375,2.29166 -3.40625,4.03125c-0.8125,1.72916 -1.21875,3.73959 -1.21875,6.03125c0,2.30209 0.40625,4.30729 1.21875,6.01563c0.8125,1.70834 1.94792,3.03646 3.40625,3.98438c1.45833,0.94791 3.16667,1.42188 5.125,1.42188c1.95833,0 3.67708,-0.47396 5.15625,-1.42187c1.48958,-0.94791 2.64063,-2.27604 3.45313,-3.98437c0.8125,-1.70834 1.21875,-3.71354 1.21875,-6.01562c0,-2.29166 -0.40625,-4.30209 -1.21875,-6.03125c-0.8125,-1.73959 -1.96354,-3.08334 -3.45312,-4.03125c-1.47917,-0.95834 -3.19792,-1.4375 -5.15625,-1.4375z" fill="url(#color-3)" fill-rule="nonzero" stroke-linecap="butt"/><path d="M156.97705,194.32032c0.89584,1.90625 2.16666,3.38021 3.8125,4.42188c1.65625,1.03125 3.57813,1.54688 5.76563,1.54688c4.03125,0 7.58334,-1.54166 10.65625,-4.625l4.57679,0.03438c-2.29166,2.51041 -1.86845,12.16875 -5.20179,13.575c-3.33334,1.39584 -7.125,2.09375 -11.375,2.09375c-4.9375,0 -9.21354,-0.94791 -12.82812,-2.84375c-3.60416,-1.90625 -6.375,-4.59375 -8.3125,-8.0625c-1.92709,-3.47916 -2.89062,-7.51562 -2.89062,-12.10937c0,-4.69791 0.97916,-8.79687 2.9375,-12.29687c1.95834,-3.5 4.72916,-6.21354 8.3125,-8.14062c3.58334,-1.9375 7.72916,-2.90625 12.4375,-2.90625c5.32291,0 9.73438,1.10416 13.23438,3.3125c3.5,2.20834 6.07291,5.35938 7.71875,9.45313c1.65625,4.08334 2.31771,8.86979 1.98438,14.35938h-31.61803c0.20589,0.77589 0.4692,1.50506 0.78991,2.1875zM173.35205,184.24219c0.05209,-1.85416 -0.27084,-3.4375 -0.96875,-4.75c-0.69791,-1.3125 -1.69271,-2.33334 -2.98437,-3.0625c-1.28125,-0.72916 -2.76562,-1.09375 -4.45312,-1.09375c-1.95834,0 -3.625,0.52084 -5,1.5625c-1.36459,1.03125 -2.42709,2.45834 -3.1875,4.28125c-0.38932,0.94084 -0.67758,1.96168 -0.86481,3.0625z" fill="url(#color-4)" fill-rule="nonzero" stroke-linecap="butt"/><path d="M372.53366,186.42969c0,-2.58334 -0.70312,-4.63021 -2.10937,-6.14062c-1.39583,-1.51041 -3.27083,-2.26562 -5.625,-2.26562c-2.79167,0.05209 -4.98958,1.04688 -6.59375,2.98438c-1.30564,1.57871 -2.07648,3.52795 -2.3125,5.8477v24.01167h-14.9375v-45.35937h14.9375v7.34562c1.36077,-2.23743 3.05869,-4.01409 5.09375,-5.32999c2.77083,-1.79166 6.08854,-2.6875 9.95313,-2.6875c3.30208,0 6.19792,0.71354 8.6875,2.14063c2.48958,1.42709 4.40626,3.44271 5.75003,6.04688c1.35417,2.60416 2.03125,5.67188 2.03125,9.20313v28.64063h-14.87503z" fill="url(#color-5)" fill-rule="nonzero" stroke-linecap="butt"/><path d="M280.30594,178.35157c-2.96875,-0.33334 -5.5625,-0.07812 -7.78125,0.76563c-2.20833,0.84375 -3.91667,2.11979 -5.125,3.82813c-0.94813,1.34387 -1.52105,2.91289 -1.71875,4.70703v23.21485h-14.9375v-45.35937h14.9375v7.49125c1.3258,-2.21449 2.97683,-3.99804 4.95313,-5.35063c2.75,-1.875 5.97396,-2.8125 9.67188,-2.8125z" fill="url(#color-6)" fill-rule="nonzero" stroke-linecap="butt"/><path d="M-240,-180h960v720h-960z" fill-opacity="0" fill="#000000" fill-rule="evenodd" stroke-linecap="square"/><path d="M216.98442,164.91407c3.86459,0 7.16666,0.94271 9.90625,2.82813c1.46838,1.00116 2.76004,2.22952 3.875,3.68508v-22.8882h14.95313v62.32813h-14.95312v-5.80208c-1.05427,1.38779 -2.27302,2.5666 -3.65625,3.53645c-2.71875,1.90625 -5.97916,2.85938 -9.78125,2.85938c-4.26041,0 -7.98959,-0.97916 -11.1875,-2.9375c-3.1875,-1.96875 -5.65104,-4.71354 -7.39062,-8.23437c-1.72916,-3.53125 -2.59375,-7.65104 -2.59375,-12.35937c0,-4.64584 0.85416,-8.67709 2.5625,-12.09375c1.70834,-3.41666 4.14063,-6.08854 7.29688,-8.01562c3.16666,-1.9375 6.82291,-2.90625 10.96875,-2.90625zM221.01567,176.85157c-1.95834,0 -3.68229,0.47916 -5.17187,1.4375c-1.47916,0.94791 -2.625,2.29166 -3.4375,4.03125c-0.8125,1.72916 -1.21875,3.73959 -1.21875,6.03125c0,2.30209 0.40625,4.30729 1.21875,6.01563c0.8125,1.70834 1.95834,3.05209 3.4375,4.03125c1.48959,0.97916 3.21354,1.46875 5.17188,1.46875c1.95834,0 3.66666,-0.48959 5.125,-1.46875c1.45834,-0.97916 2.59375,-2.32291 3.40625,-4.03125c0.8125,-1.70834 1.21875,-3.71354 1.21875,-6.01562c0,-2.29166 -0.40625,-4.30209 -1.21875,-6.03125c-0.8125,-1.73959 -1.94791,-3.08334 -3.40625,-4.03125c-1.45834,-0.95834 -3.16666,-1.4375 -5.125,-1.4375z" fill="url(#color-7)" fill-rule="nonzero" stroke-linecap="butt"/><path d="M84.76727,151.97657h15.35938v24.10938h23.78125v-24.10937h15.37498v58.89063h-15.37498v-22.6875h-23.78125v22.6875h-15.35937z" fill="url(#color-8)" fill-rule="nonzero" stroke-linecap="butt"/><path d="M313.76567,165.00782c4.97917,0 9.32813,0.95313 13.04688,2.85938c3.72917,1.89584 6.63021,4.58334 8.70313,8.0625c2.07292,3.46875 3.10938,7.52604 3.10938,12.17188c0,4.64584 -1.03646,8.71875 -3.10937,12.21875c-2.07292,3.5 -4.97396,6.21875 -8.70312,8.15625c-3.71875,1.92709 -8.06771,2.89063 -13.04687,2.89063c-4.98958,0 -9.34896,-0.96354 -13.07812,-2.89062c-3.71875,-1.9375 -6.59896,-4.65625 -8.64062,-8.15625c-2.04167,-3.5 -3.0625,-7.57291 -3.0625,-12.21875c0,-4.64584 1.02083,-8.70312 3.0625,-12.17187c2.04167,-3.47916 4.92188,-6.16666 8.64063,-8.0625c3.72917,-1.90625 8.08854,-2.85937 13.07813,-2.85937zM313.76567,176.85157c-1.95833,0 -3.66667,0.47916 -5.125,1.4375c-1.45833,0.94791 -2.59375,2.29166 -3.40625,4.03125c-0.8125,1.72916 -1.21875,3.73959 -1.21875,6.03125c0,2.30209 0.40625,4.30729 1.21875,6.01563c0.8125,1.70834 1.94792,3.03646 3.40625,3.98438c1.45833,0.94791 3.16667,1.42188 5.125,1.42188c1.95833,0 3.67708,-0.47396 5.15625,-1.42187c1.48958,-0.94791 2.64063,-2.27604 3.45313,-3.98437c0.8125,-1.70834 1.21875,-3.71354 1.21875,-6.01562c0,-2.29166 -0.40625,-4.30209 -1.21875,-6.03125c-0.8125,-1.73959 -1.96354,-3.08334 -3.45312,-4.03125c-1.47917,-0.95834 -3.19792,-1.4375 -5.15625,-1.4375z" fill="url(#color-9)" fill-rule="nonzero" stroke-linecap="butt"/><path d="M161.3011,194.32032c0.89584,1.90625 2.16666,3.38021 3.8125,4.42188c1.65625,1.03125 3.57813,1.54688 5.76563,1.54688c4.03125,0 7.58334,-1.54166 10.65625,-4.625l7.8125,7.73438c-2.29166,2.51041 -5.10416,4.46875 -8.4375,5.875c-3.33334,1.39584 -7.125,2.09375 -11.375,2.09375c-4.9375,0 -9.21354,-0.94791 -12.82812,-2.84375c-3.60416,-1.90625 -6.375,-4.59375 -8.3125,-8.0625c-1.92709,-3.47916 -2.89062,-7.51562 -2.89062,-12.10937c0,-4.69791 0.97916,-8.79687 2.9375,-12.29687c1.95834,-3.5 4.72916,-6.21354 8.3125,-8.14062c3.58334,-1.9375 7.72916,-2.90625 12.4375,-2.90625c5.32291,0 9.73438,1.10416 13.23438,3.3125c3.5,2.20834 6.07291,5.35938 7.71875,9.45313c1.65625,4.08334 2.31771,8.86979 1.98438,14.35938h-31.61803c0.20589,0.77589 0.4692,1.50506 0.78991,2.1875zM177.6761,184.24219c0.05209,-1.85416 -0.27084,-3.4375 -0.96875,-4.75c-0.69791,-1.3125 -1.69271,-2.33334 -2.98437,-3.0625c-1.28125,-0.72916 -2.76562,-1.09375 -4.45312,-1.09375c-1.95834,0 -3.625,0.52084 -5,1.5625c-1.36459,1.03125 -2.42709,2.45834 -3.1875,4.28125c-0.38932,0.94084 -0.67758,1.96168 -0.86481,3.0625z" fill="url(#color-10)" fill-rule="nonzero" stroke-linecap="butt"/><path d="M376.85771,186.42969c0,-2.58334 -0.70312,-4.63021 -2.10937,-6.14062c-1.39583,-1.51041 -3.27083,-2.26562 -5.625,-2.26562c-2.79167,0.05209 -4.98958,1.04688 -6.59375,2.98438c-1.30564,1.57871 -2.07648,3.52795 -2.3125,5.8477v24.01167h-14.9375v-45.35937h14.9375v7.34562c1.36077,-2.23743 3.05869,-4.01409 5.09375,-5.32999c2.77083,-1.79166 6.08854,-2.6875 9.95313,-2.6875c3.30208,0 6.19792,0.71354 8.6875,2.14063c2.48958,1.42709 4.40626,3.44271 5.75003,6.04688c1.35417,2.60416 2.03125,5.67188 2.03125,9.20313v28.64063h-14.87503z" fill="url(#color-11)" fill-rule="nonzero" stroke-linecap="butt"/><path d="M284.62998,178.35157c-2.96875,-0.33334 -5.5625,-0.07812 -7.78125,0.76563c-2.20833,0.84375 -3.91667,2.11979 -5.125,3.82813c-0.94813,1.34387 -1.52105,2.91289 -1.71875,4.70703v23.21485h-14.9375v-45.35937h14.9375v7.49125c1.3258,-2.21449 2.97683,-3.99804 4.95313,-5.35063c2.75,-1.875 5.97396,-2.8125 9.67188,-2.8125z" fill="url(#color-12)" fill-rule="nonzero" stroke-linecap="butt"/></g></g></svg>